REM DIRINDEX 1\2,1\3,1\4
REM DIRNAME cjc151,folder01,folder02,folder03
TITLE ""
FILE "087 087_Lesson 9_TOEFL_3900.mp3" MP3
  TRACK 01 AUDIO
    TITLE "4:cjc151_3780"
    INDEX 01 00:00:00
  TRACK 02 AUDIO
    TITLE "0:"
    INDEX 01 00:01:44
  TRACK 03 AUDIO
    TITLE "2:cjc151_3781"
    INDEX 01 00:02:24
  TRACK 04 AUDIO
    TITLE "0:"
    INDEX 01 00:03:41
  TRACK 05 AUDIO
    TITLE "3:cjc151_3782"
    INDEX 01 00:05:20
  TRACK 06 AUDIO
    TITLE "0:"
    INDEX 01 00:09:10
  TRACK 07 AUDIO
    TITLE "2:cjc151_3783"
    INDEX 01 00:10:63
  TRACK 08 AUDIO
    TITLE "0:"
    INDEX 01 00:11:68
  TRACK 09 AUDIO
    TITLE "3:cjc151_3784"
    INDEX 01 00:13:53
  TRACK 10 AUDIO
    TITLE "0:"
    INDEX 01 00:17:39
  TRACK 11 AUDIO
    TITLE "2:cjc151_3785"
    INDEX 01 00:19:18
  TRACK 12 AUDIO
    TITLE "0:"
    INDEX 01 00:20:20
  TRACK 13 AUDIO
    TITLE "3:cjc151_3786"
    INDEX 01 00:22:01
  TRACK 14 AUDIO
    TITLE "0:"
    INDEX 01 00:25:74
  TRACK 15 AUDIO
    TITLE "2:cjc151_3787"
    INDEX 01 00:27:53
  TRACK 16 AUDIO
    TITLE "0:"
    INDEX 01 00:28:59
  TRACK 17 AUDIO
    TITLE "3:cjc151_3788"
    INDEX 01 00:30:30
  TRACK 18 AUDIO
    TITLE "0:"
    INDEX 01 00:33:58
  TRACK 19 AUDIO
    TITLE "2:cjc151_3789"
    INDEX 01 00:35:37
  TRACK 20 AUDIO
    TITLE "0:"
    INDEX 01 00:36:48
  TRACK 21 AUDIO
    TITLE "3:cjc151_3790"
    INDEX 01 00:38:30
  TRACK 22 AUDIO
    TITLE "0:"
    INDEX 01 00:42:27
  TRACK 23 AUDIO
    TITLE "2:cjc151_3791"
    INDEX 01 00:44:07
  TRACK 24 AUDIO
    TITLE "0:"
    INDEX 01 00:45:26
  TRACK 25 AUDIO
    TITLE "3:cjc151_3792"
    INDEX 01 00:47:03
  TRACK 26 AUDIO
    TITLE "0:"
    INDEX 01 00:50:52
  TRACK 27 AUDIO
    TITLE "2:cjc151_3793"
    INDEX 01 00:52:30
  TRACK 28 AUDIO
    TITLE "0:"
    INDEX 01 00:53:31
  TRACK 29 AUDIO
    TITLE "3:cjc151_3794"
    INDEX 01 00:55:10
  TRACK 30 AUDIO
    TITLE "0:"
    INDEX 01 00:58:38
  TRACK 31 AUDIO
    TITLE "2:cjc151_3795"
    INDEX 01 01:00:15
  TRACK 32 AUDIO
    TITLE "0:"
    INDEX 01 01:01:07
  TRACK 33 AUDIO
    TITLE "3:cjc151_3796"
    INDEX 01 01:02:63
  TRACK 34 AUDIO
    TITLE "0:"
    INDEX 01 01:06:28
  TRACK 35 AUDIO
    TITLE "2:cjc151_3797"
    INDEX 01 01:08:07
  TRACK 36 AUDIO
    TITLE "0:"
    INDEX 01 01:08:74
  TRACK 37 AUDIO
    TITLE "3:cjc151_3798"
    INDEX 01 01:10:53
  TRACK 38 AUDIO
    TITLE "0:"
    INDEX 01 01:14:43
  TRACK 39 AUDIO
    TITLE "2:cjc151_3799"
    INDEX 01 01:16:20
  TRACK 40 AUDIO
    TITLE "0:"
    INDEX 01 01:17:39
  TRACK 41 AUDIO
    TITLE "3:cjc151_3800"
    INDEX 01 01:19:19
  TRACK 42 AUDIO
    TITLE "0:"
    INDEX 01 01:23:01
  TRACK 43 AUDIO
    TITLE "2:cjc151_3801"
    INDEX 01 01:24:55
  TRACK 44 AUDIO
    TITLE "0:"
    INDEX 01 01:25:72
  TRACK 45 AUDIO
    TITLE "3:cjc151_3802"
    INDEX 01 01:27:50
  TRACK 46 AUDIO
    TITLE "0:"
    INDEX 01 01:33:03
  TRACK 47 AUDIO
    TITLE "2:cjc151_3803"
    INDEX 01 01:34:57
  TRACK 48 AUDIO
    TITLE "0:"
    INDEX 01 01:35:53
  TRACK 49 AUDIO
    TITLE "3:cjc151_3804"
    INDEX 01 01:37:32
  TRACK 50 AUDIO
    TITLE "0:"
    INDEX 01 01:40:68
  TRACK 51 AUDIO
    TITLE "2:cjc151_3805"
    INDEX 01 01:42:47
  TRACK 52 AUDIO
    TITLE "0:"
    INDEX 01 01:43:56
  TRACK 53 AUDIO
    TITLE "3:cjc151_3806"
    INDEX 01 01:45:36
  TRACK 54 AUDIO
    TITLE "0:"
    INDEX 01 01:49:67
  TRACK 55 AUDIO
    TITLE "2:cjc151_3807"
    INDEX 01 01:51:42
  TRACK 56 AUDIO
    TITLE "0:"
    INDEX 01 01:52:48
  TRACK 57 AUDIO
    TITLE "3:cjc151_3808"
    INDEX 01 01:54:27
  TRACK 58 AUDIO
    TITLE "0:"
    INDEX 01 01:57:62
  TRACK 59 AUDIO
    TITLE "2:cjc151_3809"
    INDEX 01 01:59:42
  TRACK 60 AUDIO
    TITLE "0:"
    INDEX 01 02:00:51
  TRACK 61 AUDIO
    TITLE "3:cjc151_3810"
    INDEX 01 02:02:30
  TRACK 62 AUDIO
    TITLE "0:"
    INDEX 01 02:05:64
  TRACK 63 AUDIO
    TITLE "2:cjc151_3811"
    INDEX 01 02:07:41
  TRACK 64 AUDIO
    TITLE "0:"
    INDEX 01 02:08:58
  TRACK 65 AUDIO
    TITLE "3:cjc151_3812"
    INDEX 01 02:10:40
  TRACK 66 AUDIO
    TITLE "0:"
    INDEX 01 02:14:67
  TRACK 67 AUDIO
    TITLE "2:cjc151_3813"
    INDEX 01 02:16:46
  TRACK 68 AUDIO
    TITLE "0:"
    INDEX 01 02:17:45
  TRACK 69 AUDIO
    TITLE "3:cjc151_3814"
    INDEX 01 02:19:25
  TRACK 70 AUDIO
    TITLE "0:"
    INDEX 01 02:23:05
  TRACK 71 AUDIO
    TITLE "2:cjc151_3815"
    INDEX 01 02:24:59
  TRACK 72 AUDIO
    TITLE "0:"
    INDEX 01 02:25:51
  TRACK 73 AUDIO
    TITLE "3:cjc151_3816"
    INDEX 01 02:27:30
  TRACK 74 AUDIO
    TITLE "0:"
    INDEX 01 02:30:60
  TRACK 75 AUDIO
    TITLE "2:cjc151_3817"
    INDEX 01 02:32:39
  TRACK 76 AUDIO
    TITLE "0:"
    INDEX 01 02:33:58
  TRACK 77 AUDIO
    TITLE "3:cjc151_3818"
    INDEX 01 02:35:38
  TRACK 78 AUDIO
    TITLE "0:"
    INDEX 01 02:39:20
  TRACK 79 AUDIO
    TITLE "2:cjc151_3819"
    INDEX 01 02:41:13
  TRACK 80 AUDIO
    TITLE "0:"
    INDEX 01 02:42:22
  TRACK 81 AUDIO
    TITLE "3:cjc151_3820"
    INDEX 01 02:43:74
  TRACK 82 AUDIO
    TITLE "0:"
    INDEX 01 02:47:54
  TRACK 83 AUDIO
    TITLE "2:cjc151_3821"
    INDEX 01 02:49:30
  TRACK 84 AUDIO
    TITLE "0:"
    INDEX 01 02:50:29
  TRACK 85 AUDIO
    TITLE "3:cjc151_3822"
    INDEX 01 02:52:16
  TRACK 86 AUDIO
    TITLE "0:"
    INDEX 01 02:55:74
  TRACK 87 AUDIO
    TITLE "2:cjc151_3823"
    INDEX 01 02:57:51
  TRACK 88 AUDIO
    TITLE "0:"
    INDEX 01 02:58:62
  TRACK 89 AUDIO
    TITLE "3:cjc151_3824"
    INDEX 01 03:00:34
  TRACK 90 AUDIO
    TITLE "0:"
    INDEX 01 03:03:50
